<svg xmlns="http://www.w3.org/2000/svg" xmlns:xlink="http://www.w3.org/1999/xlink" version="1.1" width="256" height="256" viewBox="0 0 256 256" xml:space="preserve">
<g style="stroke: none; stroke-width: 0; stroke-dasharray: none; stroke-linecap: butt; stroke-linejoin: miter; stroke-miterlimit: 10; fill: none; fill-rule: nonzero; opacity: 1;" transform="translate(1.4065934065934016 1.4065934065934016) scale(2.81 2.81)">
	<path d="M 78.617 90 H 11.383 c -1.33 0 -2.408 -1.078 -2.408 -2.408 V 2.408 C 8.974 1.078 10.053 0 11.383 0 h 67.234 c 1.33 0 2.408 1.078 2.408 2.408 v 85.183 C 81.026 88.922 79.947 90 78.617 90 z" style="stroke: none; stroke-width: 1; stroke-dasharray: none; stroke-linecap: butt; stroke-linejoin: miter; stroke-miterlimit: 10; fill: rgb(51,49,63); fill-rule: nonzero; opacity: 1;" transform=" matrix(1 0 0 1 0 0) " stroke-linecap="round"/>
	<rect x="16.13" y="7.16" rx="0" ry="0" width="57.73" height="72.61" style="stroke: none; stroke-width: 1; stroke-dasharray: none; stroke-linecap: butt; stroke-linejoin: miter; stroke-miterlimit: 10; fill: rgb(185,210,237); fill-rule: nonzero; opacity: 1;" transform=" matrix(1 0 0 1 0 0) "/>
	<path d="M 48.479 85.9 h -6.958 c -0.552 0 -1 -0.447 -1 -1 s 0.448 -1 1 -1 h 6.958 c 0.553 0 1 0.447 1 1 S 49.032 85.9 48.479 85.9 z" style="stroke: none; stroke-width: 1; stroke-dasharray: none; stroke-linecap: butt; stroke-linejoin: miter; stroke-miterlimit: 10; fill: rgb(98,98,124); fill-rule: nonzero; opacity: 1;" transform=" matrix(1 0 0 1 0 0) " stroke-linecap="round"/>
	<path d="M 26.737 20.924 c 0.552 0 1 -0.448 1 -1 s -0.448 -1 -1 -1 h -4.93 c -0.552 0 -1 0.448 -1 1 v 7.994 c 0 0.552 0.448 1 1 1 h 4.93 c 0.552 0 1 -0.448 1 -1 s -0.448 -1 -1 -1 h -3.93 v -1.997 h 2.704 c 0.552 0 1 -0.448 1 -1 s -0.448 -1 -1 -1 h -2.704 v -1.997 H 26.737 z" style="stroke: none; stroke-width: 1; stroke-dasharray: none; stroke-linecap: butt; stroke-linejoin: miter; stroke-miterlimit: 10; fill: rgb(51,49,63); fill-rule: nonzero; opacity: 1;" transform=" matrix(1 0 0 1 0 0) " stroke-linecap="round"/>
	<path d="M 39.751 18.924 h -3.638 c -0.552 0 -1 0.448 -1 1 v 3.997 v 3.997 c 0 0.552 0.448 1 1 1 h 3.638 c 1.394 0 2.528 -1.134 2.528 -2.528 v -0.94 c 0 -0.577 -0.202 -1.102 -0.528 -1.528 c 0.326 -0.426 0.528 -0.952 0.528 -1.528 v -0.94 C 42.279 20.059 41.145 18.924 39.751 18.924 z M 37.113 20.924 h 2.638 c 0.292 0 0.528 0.237 0.528 0.528 v 0.94 c 0 0.292 -0.237 0.528 -0.528 0.528 h -2.638 V 20.924 z M 40.279 26.39 c 0 0.292 -0.237 0.528 -0.528 0.528 h -2.638 v -1.997 h 2.638 c 0.292 0 0.528 0.237 0.528 0.528 V 26.39 z" style="stroke: none; stroke-width: 1; stroke-dasharray: none; stroke-linecap: butt; stroke-linejoin: miter; stroke-miterlimit: 10; fill: rgb(51,49,63); fill-rule: nonzero; opacity: 1;" transform=" matrix(1 0 0 1 0 0) " stroke-linecap="round"/>
	<path d="M 48.859 18.924 h -2.4 c -1.502 0 -2.724 1.222 -2.724 2.724 v 4.546 c 0 1.502 1.222 2.724 2.724 2.724 h 2.4 c 1.502 0 2.724 -1.222 2.724 -2.724 v -4.546 C 51.583 20.146 50.361 18.924 48.859 18.924 z M 49.583 26.194 c 0 0.399 -0.324 0.724 -0.724 0.724 h -2.4 c -0.399 0 -0.724 -0.325 -0.724 -0.724 v -4.546 c 0 -0.399 0.324 -0.724 0.724 -0.724 h 2.4 c 0.399 0 0.724 0.325 0.724 0.724 V 26.194 z" style="stroke: none; stroke-width: 1; stroke-dasharray: none; stroke-linecap: butt; stroke-linejoin: miter; stroke-miterlimit: 10; fill: rgb(51,49,63); fill-rule: nonzero; opacity: 1;" transform=" matrix(1 0 0 1 0 0) " stroke-linecap="round"/>
	<path d="M 57.822 18.924 h -2.4 c -1.502 0 -2.724 1.222 -2.724 2.724 v 4.546 c 0 1.502 1.222 2.724 2.724 2.724 h 2.4 c 1.502 0 2.724 -1.222 2.724 -2.724 v -4.546 C 60.546 20.146 59.324 18.924 57.822 18.924 z M 58.546 26.194 c 0 0.399 -0.324 0.724 -0.724 0.724 h -2.4 c -0.399 0 -0.724 -0.325 -0.724 -0.724 v -4.546 c 0 -0.399 0.324 -0.724 0.724 -0.724 h 2.4 c 0.399 0 0.724 0.325 0.724 0.724 V 26.194 z" style="stroke: none; stroke-width: 1; stroke-dasharray: none; stroke-linecap: butt; stroke-linejoin: miter; stroke-miterlimit: 10; fill: rgb(51,49,63); fill-rule: nonzero; opacity: 1;" transform=" matrix(1 0 0 1 0 0) " stroke-linecap="round"/>
	<path d="M 64.619 23.921 l 4.183 -3.21 c 0.438 -0.336 0.521 -0.964 0.184 -1.402 c -0.334 -0.437 -0.963 -0.521 -1.402 -0.185 l -3.606 2.768 v -1.975 c 0 -0.552 -0.447 -1 -1 -1 s -1 0.448 -1 1 v 8.008 c 0 0.552 0.447 1 1 1 s 1 -0.448 1 -1 v -1.977 l 3.6 2.763 c 0.181 0.139 0.396 0.207 0.607 0.207 c 0.301 0 0.598 -0.135 0.794 -0.391 c 0.337 -0.438 0.254 -1.066 -0.185 -1.402 L 64.619 23.921 z" style="stroke: none; stroke-width: 1; stroke-dasharray: none; stroke-linecap: butt; stroke-linejoin: miter; stroke-miterlimit: 10; fill: rgb(51,49,63); fill-rule: nonzero; opacity: 1;" transform=" matrix(1 0 0 1 0 0) " stroke-linecap="round"/>
	<path d="M 32.179 22.921 h -2.818 c -0.552 0 -1 0.448 -1 1 s 0.448 1 1 1 h 2.818 c 0.552 0 1 -0.448 1 -1 S 32.731 22.921 32.179 22.921 z" style="stroke: none; stroke-width: 1; stroke-dasharray: none; stroke-linecap: butt; stroke-linejoin: miter; stroke-miterlimit: 10; fill: rgb(51,49,63); fill-rule: nonzero; opacity: 1;" transform=" matrix(1 0 0 1 0 0) " stroke-linecap="round"/>
	<path d="M 68.192 38.155 H 21.807 c -0.552 0 -1 -0.448 -1 -1 s 0.448 -1 1 -1 h 46.385 c 0.553 0 1 0.448 1 1 S 68.745 38.155 68.192 38.155 z" style="stroke: none; stroke-width: 1; stroke-dasharray: none; stroke-linecap: butt; stroke-linejoin: miter; stroke-miterlimit: 10; fill: rgb(51,49,63); fill-rule: nonzero; opacity: 1;" transform=" matrix(1 0 0 1 0 0) " stroke-linecap="round"/>
	<path d="M 68.192 48.383 H 21.807 c -0.552 0 -1 -0.447 -1 -1 s 0.448 -1 1 -1 h 46.385 c 0.553 0 1 0.447 1 1 S 68.745 48.383 68.192 48.383 z" style="stroke: none; stroke-width: 1; stroke-dasharray: none; stroke-linecap: butt; stroke-linejoin: miter; stroke-miterlimit: 10; fill: rgb(51,49,63); fill-rule: nonzero; opacity: 1;" transform=" matrix(1 0 0 1 0 0) " stroke-linecap="round"/>
	<path d="M 68.192 58.61 H 21.807 c -0.552 0 -1 -0.447 -1 -1 s 0.448 -1 1 -1 h 46.385 c 0.553 0 1 0.447 1 1 S 68.745 58.61 68.192 58.61 z" style="stroke: none; stroke-width: 1; stroke-dasharray: none; stroke-linecap: butt; stroke-linejoin: miter; stroke-miterlimit: 10; fill: rgb(51,49,63); fill-rule: nonzero; opacity: 1;" transform=" matrix(1 0 0 1 0 0) " stroke-linecap="round"/>
	<path d="M 36.488 68.837 H 21.807 c -0.552 0 -1 -0.447 -1 -1 s 0.448 -1 1 -1 h 14.681 c 0.552 0 1 0.447 1 1 S 37.041 68.837 36.488 68.837 z" style="stroke: none; stroke-width: 1; stroke-dasharray: none; stroke-linecap: butt; stroke-linejoin: miter; stroke-miterlimit: 10; fill: rgb(51,49,63); fill-rule: nonzero; opacity: 1;" transform=" matrix(1 0 0 1 0 0) " stroke-linecap="round"/>
</g>
</svg>